<svg xmlns="http://www.w3.org/2000/svg">
<symbol fill="none" viewBox="0 0 64 64" id="svg-search">
<g clip-path="url(#aa)">
<path d="M63.13 55.332 50.666 42.871a2.998 2.998 0 0 0-2.125-.875h-2.038a25.867 25.867 0 0 0 5.5-15.999C52.004 11.637 40.366 0 26.003 0 11.638 0 0 11.636 0 25.997 0 40.36 11.638 51.995 26.002 51.995c6.038 0 11.588-2.05 16.001-5.5v2.038c0 .8.313 1.562.875 2.125l12.464 12.46a2.988 2.988 0 0 0 4.237 0l3.538-3.536a3.013 3.013 0 0 0 .013-4.25ZM26.002 41.996C17.164 41.996 10 34.846 10 25.997 10 17.161 17.15 10 26 10c8.839 0 16.002 7.15 16.002 15.998 0 8.837-7.15 15.999-16.001 15.999Z" fill="#000"/>
</g>
<defs>
<clipPath id="aa">
<path fill="#fff" d="M0 0h64v64H0z"/>
</clipPath>
</defs>
</symbol>
<symbol fill="none" viewBox="0 0 64 64" id="svg-check-circle">
<path d="M32 1C14.88 1 1 14.88 1 32c0 17.12 13.88 31 31 31 17.12 0 31-13.88 31-31C63 14.88 49.12 1 32 1Zm0 6c13.816 0 25 11.181 25 25 0 13.816-11.181 25-25 25C18.183 57 7 45.819 7 32 7 18.183 18.181 7 32 7Zm17.526 16.283-2.818-2.84a1.5 1.5 0 0 0-2.12-.008l-17.67 17.527-7.474-7.535a1.5 1.5 0 0 0-2.121-.008l-2.84 2.817a1.5 1.5 0 0 0-.008 2.121l11.347 11.44a1.5 1.5 0 0 0 2.122.008l21.573-21.4a1.5 1.5 0 0 0 .008-2.122Z" fill="#000"/>
</symbol>
<symbol fill="none" viewBox="0 0 64 64" id="svg-thumbs-up">
<path d="M58.284 35.836C59.38 33.98 60 32 60 29.606c0-5.502-4.652-10.697-10.727-10.697h-4.56c.614-1.601 1.106-3.516 1.106-5.818C45.819 3.992 41.107 0 33.91 0c-7.7 0-7.262 11.867-8.97 13.575-2.843 2.843-6.202 8.306-8.595 10.425H4a4 4 0 0 0-4 4v30a4 4 0 0 0 4 4h8a4.002 4.002 0 0 0 3.872-2.994C21.436 59.131 25.255 64 38.097 64l2.778.001c9.64 0 13.998-4.928 14.117-11.916 1.665-2.303 2.538-5.39 2.168-8.374a11.609 11.609 0 0 0 1.124-7.874Zm-7.719 6.729c1.57 2.641.157 6.176-1.742 7.196C49.785 55.86 46.62 58 42.182 58h-4.728C28.5 57.999 22.701 53.27 16 53.27V30h1.365c3.545 0 8.498-8.861 11.818-12.183C32.727 14.273 31.546 8.364 33.91 6c5.909 0 5.909 4.123 5.909 7.091 0 4.897-3.545 7.09-3.545 11.818h12.998c2.64 0 4.717 2.364 4.728 4.727.011 2.363-1.602 4.726-2.784 4.726 1.686 1.82 2.047 5.655-.651 8.203ZM11 54a3 3 0 1 1-6 0 3 3 0 0 1 6 0Z" fill="#000"/>
</symbol>
<symbol fill="none" viewBox="0 0 56 64" id="svg-chevron-down">
<path d="M25.879 47.684 1.586 23.392a3 3 0 0 1 0-4.243l2.833-2.834a3 3 0 0 1 4.238-.005L28 35.564 47.343 16.31a3 3 0 0 1 4.238.006l2.833 2.833a3 3 0 0 1 0 4.242L30.121 47.686a3 3 0 0 1-4.242 0Z" fill="#fff"/>
</symbol>
<symbol fill="none" viewBox="0 0 64 64" id="svg-quote-left">
<path d="M58 32H48v-8c0-4.413 3.587-8 8-8h1c1.663 0 3-1.338 3-3V7c0-1.662-1.337-3-3-3h-1c-11.05 0-20 8.95-20 20v30c0 3.313 2.688 6 6 6h16c3.313 0 6-2.688 6-6V38c0-3.313-2.688-6-6-6Zm-36 0H12v-8c0-4.413 3.588-8 8-8h1c1.663 0 3-1.338 3-3V7c0-1.662-1.337-3-3-3h-1C8.95 4 0 12.95 0 24v30c0 3.313 2.688 6 6 6h16c3.313 0 6-2.688 6-6V38c0-3.313-2.688-6-6-6Z" fill="#000"/>
</symbol>
<symbol fill="none" viewBox="0 0 40 64" id="svg-facebook">
<path d="m34.892 36 1.778-11.582H25.556V16.9c0-3.168 1.553-6.257 6.53-6.257h5.053V.783S32.554 0 28.17 0c-9.153 0-15.135 5.548-15.135 15.59v8.828H2.861V36h10.174v28h12.521V36h9.336Z" fill="#000"/>
</symbol>
<symbol fill="none" viewBox="0 0 72 64" id="svg-youtube">
<path d="M68.707 15.51a8.578 8.578 0 0 0-6.036-6.074C57.347 8 36 8 36 8S14.652 8 9.329 9.436a8.578 8.578 0 0 0-6.036 6.074C1.867 20.87 1.867 32.048 1.867 32.048s0 11.18 1.426 16.539c.785 2.956 3.098 5.187 6.036 5.977C14.652 56 35.999 56 35.999 56s21.348 0 26.672-1.436c2.937-.79 5.25-3.021 6.036-5.977 1.426-5.359 1.426-16.539 1.426-16.539s0-11.18-1.426-16.538ZM29.018 42.2v-20.3l17.842 10.15-17.842 10.15Z" fill="#000"/>
</symbol>
<symbol fill="none" viewBox="0 0 64 64" id="svg-twitter">
<path d="M57.421 18.965c.04.568.04 1.137.04 1.705 0 17.34-13.197 37.32-37.319 37.32-7.431 0-14.335-2.153-20.142-5.888 1.056.121 2.071.162 3.167.162a26.269 26.269 0 0 0 16.285-5.604c-5.767-.122-10.6-3.898-12.264-9.096.812.121 1.624.203 2.477.203 1.178 0 2.355-.163 3.452-.447-6.01-1.218-10.518-6.498-10.518-12.873v-.163a13.211 13.211 0 0 0 5.929 1.665A13.108 13.108 0 0 1 2.68 15.025c0-2.436.65-4.67 1.787-6.619a37.284 37.284 0 0 0 27.046 13.726 14.807 14.807 0 0 1-.325-3.005c0-7.228 5.847-13.117 13.116-13.117 3.777 0 7.188 1.584 9.584 4.142a25.825 25.825 0 0 0 8.325-3.167 13.082 13.082 0 0 1-5.767 7.228c2.64-.284 5.199-1.015 7.554-2.03a28.194 28.194 0 0 1-6.579 6.782Z" fill="#000"/>
</symbol>
<symbol fill="none" viewBox="0 0 62 64" id="svg-pinterest">
<path d="M62 32c0 17.125-13.875 31-31 31-3.2 0-6.275-.487-9.175-1.388 1.262-2.062 3.15-5.437 3.85-8.125.375-1.45 1.925-7.375 1.925-7.375 1.012 1.925 3.962 3.563 7.1 3.563 9.35 0 16.087-8.6 16.087-19.287 0-10.238-8.362-17.9-19.112-17.9-13.375 0-20.488 8.974-20.488 18.762 0 4.55 2.426 10.212 6.288 12.013.587.275.9.15 1.037-.413.1-.425.625-2.538.863-3.513.075-.312.038-.587-.212-.887-1.263-1.563-2.288-4.413-2.288-7.075 0-6.837 5.175-13.45 14-13.45 7.612 0 12.95 5.188 12.95 12.613 0 8.387-4.238 14.2-9.75 14.2-3.038 0-5.325-2.513-4.588-5.6.876-3.688 2.563-7.663 2.563-10.325 0-2.375-1.275-4.363-3.925-4.363-3.113 0-5.613 3.213-5.613 7.525 0 2.75.925 4.6.925 4.6s-3.062 12.975-3.625 15.4c-.625 2.675-.375 6.45-.112 8.9C8.175 56.362 0 45.138 0 32 0 14.875 13.875 1 31 1s31 13.875 31 31Z" fill="#000"/>
</symbol>
<symbol fill="none" viewBox="0 0 56 64" id="svg-linkedin">
<path d="M52 4H3.987C1.787 4 0 5.813 0 8.037v47.925C0 58.188 1.788 60 3.987 60H52c2.2 0 4-1.813 4-4.038V8.038C56 5.813 54.2 4 52 4ZM16.925 52h-8.3V25.275h8.313V52h-.013Zm-4.15-30.375a4.815 4.815 0 0 1-4.813-4.813c0-2.65 2.15-4.812 4.813-4.812a4.823 4.823 0 0 1 4.812 4.813 4.807 4.807 0 0 1-4.812 4.812ZM48.038 52h-8.3V39c0-3.1-.063-7.087-4.313-7.087-4.325 0-4.987 3.375-4.987 6.862V52h-8.3V25.275H30.1v3.65h.112c1.113-2.1 3.826-4.313 7.863-4.313 8.4 0 9.962 5.538 9.962 12.738V52Z" fill="#000"/>
</symbol>
</svg>